# xmcd CD database file
#
# Track frame offsets:
#	150
#	11871
#	26863
#	40898
#	61099
#	83893
#	98770
#	113153
#	124387
#	141497
#	158678
#	175095
#	189644
#
# Disc length: 2712 seconds
#
# Revision: 0
# Processed by: cddbd v1.4PL0 Copyright (c) Steve Scherf et al.
# Submitted via: CDex 1.50
#
DISCID=b00a960d
DTITLE=Andres Alen - Canciones de Navidad
DYEAR=2000
DGENRE=Salsa
TTITLE0=Jingle Bells - Cha Cha Cha
TTITLE1=The Frist Noel - Guajira
TTITLE2=Deck the Halls - Contradanza
TTITLE3=Gloria in Excelsis Deo - Rumba
TTITLE4=Silent Night - Aire de Zamba
TTITLE5=Adeste Fideles - Danzon
TTITLE6=Arbolito - Criolla-Bolero
TTITLE7=Pastores a Belen - Joropo
TTITLE8=Hark! The herald angels sing - Habanera
TTITLE9=Joy to the World - Samba
TTITLE10=Los peces en el rio - Son
TTITLE11=White Christmas - Bachata
TTITLE12=Campana sobre campana - Merengue
EXTD=YEAR: 2000
EXTT0=
EXTT1=
EXTT2=
EXTT3=
EXTT4=
EXTT5=
EXTT6=
EXTT7=
EXTT8=
EXTT9=
EXTT10=
EXTT11=
EXTT12=
PLAYORDER=
